<svg width="50" height="52" viewBox="0 0 50 52" fill="none" xmlns="http://www.w3.org/2000/svg">
<path d="M14.8973 4.66027H14.3836C14.6661 4.66027 14.8973 4.42726 14.8973 4.14247V4.66027H34.4178V4.14247C34.4178 4.42726 34.649 4.66027 34.9315 4.66027H34.4178V9.32055H39.0411V4.14247C39.0411 1.85764 37.1982 0 34.9315 0H14.3836C12.1169 0 10.274 1.85764 10.274 4.14247V9.32055H14.8973V4.66027ZM47.2603 9.32055H2.05479C0.918236 9.32055 0 10.2461 0 11.3918V13.463C0 13.7478 0.231164 13.9808 0.513699 13.9808H4.39212L5.97817 47.8325C6.08091 50.0397 7.8917 51.7808 10.0813 51.7808H39.2337C41.4298 51.7808 43.2342 50.0462 43.3369 47.8325L44.9229 13.9808H48.8014C49.0839 13.9808 49.3151 13.7478 49.3151 13.463V11.3918C49.3151 10.2461 48.3968 9.32055 47.2603 9.32055ZM38.7393 47.1205H10.5758L9.02183 13.9808H40.2932L38.7393 47.1205Z" fill="white"/>
</svg>
