<svg width="95" height="100" viewBox="0 0 95 100" fill="none" xmlns="http://www.w3.org/2000/svg">
<path d="M28.6979 9H27.7083C28.2526 9 28.6979 8.55 28.6979 8V9H66.3021V8C66.3021 8.55 66.7474 9 67.2917 9H66.3021V18H75.2083V8C75.2083 3.5875 71.6582 0 67.2917 0H27.7083C23.3418 0 19.7917 3.5875 19.7917 8V18H28.6979V9ZM91.0417 18H3.95833C1.76888 18 0 19.7875 0 22V26C0 26.55 0.445312 27 0.989583 27H8.46094L11.5163 92.375C11.7142 96.6375 15.2025 100 19.4206 100H75.5794C79.8099 100 83.2858 96.65 83.4837 92.375L86.5391 27H94.0104C94.5547 27 95 26.55 95 26V22C95 19.7875 93.2311 18 91.0417 18ZM74.627 91H20.373L17.3796 27H77.6204L74.627 91Z" fill="#3AC4B2"/>
</svg>
