<svg width="20" height="22" viewBox="0 0 20 22" fill="none" xmlns="http://www.w3.org/2000/svg">
<path d="M2.92444 21.3411C2.35386 21.3411 1.86524 21.1381 1.45857 20.7321C1.0526 20.3254 0.849609 19.8368 0.849609 19.2662V4.74243C0.849609 4.17185 1.0526 3.68358 1.45857 3.2776C1.86524 2.87094 2.35386 2.6676 2.92444 2.6676H3.96185V0.592773H6.03668V2.6676H14.336V0.592773H16.4108V2.6676H17.4482C18.0188 2.6676 18.5075 2.87094 18.9141 3.2776C19.3201 3.68358 19.5231 4.17185 19.5231 4.74243V19.2662C19.5231 19.8368 19.3201 20.3254 18.9141 20.7321C18.5075 21.1381 18.0188 21.3411 17.4482 21.3411H2.92444ZM2.92444 19.2662H17.4482V8.89209H2.92444V19.2662ZM2.92444 6.81726H17.4482V4.74243H2.92444V6.81726ZM2.92444 6.81726V4.74243V6.81726ZM10.1863 13.0418C9.89241 13.0418 9.6462 12.9422 9.44771 12.743C9.24852 12.5445 9.14893 12.2983 9.14893 12.0043C9.14893 11.7104 9.24852 11.4638 9.44771 11.2647C9.6462 11.0662 9.89241 10.9669 10.1863 10.9669C10.4803 10.9669 10.7268 11.0662 10.926 11.2647C11.1245 11.4638 11.2238 11.7104 11.2238 12.0043C11.2238 12.2983 11.1245 12.5445 10.926 12.743C10.7268 12.9422 10.4803 13.0418 10.1863 13.0418ZM6.03668 13.0418C5.74275 13.0418 5.49619 12.9422 5.29701 12.743C5.09852 12.5445 4.99927 12.2983 4.99927 12.0043C4.99927 11.7104 5.09852 11.4638 5.29701 11.2647C5.49619 11.0662 5.74275 10.9669 6.03668 10.9669C6.33062 10.9669 6.57718 11.0662 6.77636 11.2647C6.97485 11.4638 7.0741 11.7104 7.0741 12.0043C7.0741 12.2983 6.97485 12.5445 6.77636 12.743C6.57718 12.9422 6.33062 13.0418 6.03668 13.0418ZM14.336 13.0418C14.0421 13.0418 13.7959 12.9422 13.5974 12.743C13.3982 12.5445 13.2986 12.2983 13.2986 12.0043C13.2986 11.7104 13.3982 11.4638 13.5974 11.2647C13.7959 11.0662 14.0421 10.9669 14.336 10.9669C14.6299 10.9669 14.8762 11.0662 15.0746 11.2647C15.2738 11.4638 15.3734 11.7104 15.3734 12.0043C15.3734 12.2983 15.2738 12.5445 15.0746 12.743C14.8762 12.9422 14.6299 13.0418 14.336 13.0418ZM10.1863 17.1914C9.89241 17.1914 9.6462 17.0918 9.44771 16.8926C9.24852 16.6941 9.14893 16.4479 9.14893 16.154C9.14893 15.8601 9.24852 15.6138 9.44771 15.4154C9.6462 15.2162 9.89241 15.1166 10.1863 15.1166C10.4803 15.1166 10.7268 15.2162 10.926 15.4154C11.1245 15.6138 11.2238 15.8601 11.2238 16.154C11.2238 16.4479 11.1245 16.6941 10.926 16.8926C10.7268 17.0918 10.4803 17.1914 10.1863 17.1914ZM6.03668 17.1914C5.74275 17.1914 5.49619 17.0918 5.29701 16.8926C5.09852 16.6941 4.99927 16.4479 4.99927 16.154C4.99927 15.8601 5.09852 15.6138 5.29701 15.4154C5.49619 15.2162 5.74275 15.1166 6.03668 15.1166C6.33062 15.1166 6.57718 15.2162 6.77636 15.4154C6.97485 15.6138 7.0741 15.8601 7.0741 16.154C7.0741 16.4479 6.97485 16.6941 6.77636 16.8926C6.57718 17.0918 6.33062 17.1914 6.03668 17.1914ZM14.336 17.1914C14.0421 17.1914 13.7959 17.0918 13.5974 16.8926C13.3982 16.6941 13.2986 16.4479 13.2986 16.154C13.2986 15.8601 13.3982 15.6138 13.5974 15.4154C13.7959 15.2162 14.0421 15.1166 14.336 15.1166C14.6299 15.1166 14.8762 15.2162 15.0746 15.4154C15.2738 15.6138 15.3734 15.8601 15.3734 16.154C15.3734 16.4479 15.2738 16.6941 15.0746 16.8926C14.8762 17.0918 14.6299 17.1914 14.336 17.1914Z" fill="#5B5B5B"/>
</svg>
