<svg width="22" height="18" viewBox="0 0 22 18" fill="none" xmlns="http://www.w3.org/2000/svg">
<path d="M20.528 14.4431C20.528 14.8041 20.3846 15.1503 20.1293 15.4056C19.8741 15.6609 19.5279 15.8043 19.1669 15.8043H2.83355C2.47256 15.8043 2.12636 15.6609 1.8711 15.4056C1.61584 15.1503 1.47244 14.8041 1.47244 14.4431V6.27648C1.47244 5.91549 1.61584 5.56928 1.8711 5.31403C2.12636 5.05877 2.47256 4.91536 2.83355 4.91536H4.42877C5.51118 4.91477 6.54907 4.48444 7.31433 3.71895L8.44405 2.59195C8.69858 2.33734 9.04362 2.19394 9.40363 2.19314H12.5941C12.955 2.19322 13.3012 2.33667 13.5564 2.59195L14.6834 3.71895C15.0626 4.09831 15.5129 4.39923 16.0085 4.60452C16.5041 4.8098 17.0352 4.91543 17.5717 4.91536H19.1669C19.5279 4.91536 19.8741 5.05877 20.1293 5.31403C20.3846 5.56928 20.528 5.91549 20.528 6.27648V14.4431ZM2.83355 3.55425C2.11157 3.55425 1.41916 3.84106 0.908649 4.35157C0.398133 4.86209 0.111328 5.5545 0.111328 6.27648L0.111328 14.4431C0.111328 15.1651 0.398133 15.8575 0.908649 16.368C1.41916 16.8786 2.11157 17.1654 2.83355 17.1654H19.1669C19.8889 17.1654 20.5813 16.8786 21.0918 16.368C21.6023 15.8575 21.8891 15.1651 21.8891 14.4431V6.27648C21.8891 5.5545 21.6023 4.86209 21.0918 4.35157C20.5813 3.84106 19.8889 3.55425 19.1669 3.55425H17.5717C16.8497 3.5541 16.1574 3.26719 15.647 2.75664L14.5201 1.62964C14.0097 1.11909 13.3174 0.832185 12.5954 0.832031H9.40499C8.68308 0.832185 7.99078 1.11909 7.48038 1.62964L6.35338 2.75664C5.84299 3.26719 5.15069 3.5541 4.42877 3.55425H2.83355Z" fill="#797979"/>
<path d="M11.0002 13.0807C10.0977 13.0807 9.23218 12.7222 8.59404 12.0841C7.95589 11.4459 7.59738 10.5804 7.59738 9.67795C7.59738 8.77548 7.95589 7.90997 8.59404 7.27182C9.23218 6.63368 10.0977 6.27517 11.0002 6.27517C11.9026 6.27517 12.7681 6.63368 13.4063 7.27182C14.0444 7.90997 14.4029 8.77548 14.4029 9.67795C14.4029 10.5804 14.0444 11.4459 13.4063 12.0841C12.7681 12.7222 11.9026 13.0807 11.0002 13.0807ZM11.0002 14.4418C12.2636 14.4418 13.4753 13.9399 14.3687 13.0465C15.2621 12.1531 15.7641 10.9414 15.7641 9.67795C15.7641 8.41449 15.2621 7.20278 14.3687 6.30937C13.4753 5.41597 12.2636 4.91406 11.0002 4.91406C9.7367 4.91406 8.52499 5.41597 7.63158 6.30937C6.73818 7.20278 6.23627 8.41449 6.23627 9.67795C6.23627 10.9414 6.73818 12.1531 7.63158 13.0465C8.52499 13.9399 9.7367 14.4418 11.0002 14.4418ZM4.19461 6.95573C4.19461 7.13622 4.12291 7.30933 3.99528 7.43695C3.86765 7.56458 3.69455 7.63629 3.51405 7.63629C3.33356 7.63629 3.16046 7.56458 3.03283 7.43695C2.9052 7.30933 2.8335 7.13622 2.8335 6.95573C2.8335 6.77523 2.9052 6.60213 3.03283 6.4745C3.16046 6.34688 3.33356 6.27517 3.51405 6.27517C3.69455 6.27517 3.86765 6.34688 3.99528 6.4745C4.12291 6.60213 4.19461 6.77523 4.19461 6.95573Z" fill="#797979"/>
</svg>
