<svg width="21" height="17" viewBox="0 0 21 17" fill="none" xmlns="http://www.w3.org/2000/svg">
<path d="M2.16668 16.8337C1.59376 16.8337 1.10348 16.6298 0.695844 16.2222C0.28751 15.8139 0.0833435 15.3232 0.0833435 14.7503V2.25033C0.0833435 1.67741 0.28751 1.18713 0.695844 0.779492C1.10348 0.371159 1.59376 0.166992 2.16668 0.166992H18.8333C19.4063 0.166992 19.8969 0.371159 20.3052 0.779492C20.7129 1.18713 20.9167 1.67741 20.9167 2.25033V14.7503C20.9167 15.3232 20.7129 15.8139 20.3052 16.2222C19.8969 16.6298 19.4063 16.8337 18.8333 16.8337H2.16668ZM10.5 9.3597C10.5868 9.3597 10.6778 9.34651 10.7729 9.32012C10.8688 9.29442 10.9601 9.25553 11.0469 9.20345L18.4167 4.59408C18.5556 4.50727 18.6597 4.39894 18.7292 4.26908C18.7986 4.13852 18.8333 3.99512 18.8333 3.83887C18.8333 3.49164 18.6858 3.23123 18.3906 3.05762C18.0955 2.88401 17.7917 2.89269 17.4792 3.08366L10.5 7.45866L3.52084 3.08366C3.20834 2.89269 2.90452 2.88817 2.60939 3.07012C2.31425 3.25276 2.16668 3.50901 2.16668 3.83887C2.16668 4.01248 2.2014 4.16421 2.27084 4.29408C2.34029 4.42463 2.44445 4.52463 2.58334 4.59408L9.95314 9.20345C10.0399 9.25553 10.1313 9.29442 10.2271 9.32012C10.3222 9.34651 10.4132 9.3597 10.5 9.3597Z" fill="white"/>
</svg>
