<svg width="24" height="18" viewBox="0 0 24 18" fill="none" xmlns="http://www.w3.org/2000/svg">
<path d="M22.2179 7.7039C22.7509 8.40105 22.7509 9.3422 22.2179 10.0382C20.5391 12.2298 16.5114 16.7421 11.809 16.7421C7.1066 16.7421 3.07887 12.2298 1.40008 10.0382C1.14077 9.70442 1 9.29376 1 8.87106C1 8.44837 1.14077 8.03771 1.40008 7.7039C3.07887 5.51237 7.1066 1 11.809 1C16.5114 1 20.5391 5.51237 22.2179 7.7039V7.7039Z" stroke="#fff" stroke-width="2" stroke-linecap="round" stroke-linejoin="round"/>
<path d="M11.8089 12.2427C13.6719 12.2427 15.1822 10.7324 15.1822 8.86941C15.1822 7.00638 13.6719 5.49609 11.8089 5.49609C9.94583 5.49609 8.43555 7.00638 8.43555 8.86941C8.43555 10.7324 9.94583 12.2427 11.8089 12.2427Z" stroke="#fff" stroke-width="2" stroke-linecap="round" stroke-linejoin="round"/>
</svg>
