<svg width="49" height="50" viewBox="0 0 49 50" fill="none" xmlns="http://www.w3.org/2000/svg">
<path d="M30.2991 16.8628L32.7773 19.3413L8.37243 43.7496H5.89423V41.271L30.2991 16.8628ZM39.9965 0.644531C39.323 0.644531 38.6227 0.913938 38.1109 1.42581L33.1814 6.35595L43.2828 16.4587L48.2122 11.5285C48.4619 11.2793 48.6601 10.9833 48.7952 10.6574C48.9304 10.3314 49 9.98207 49 9.62923C49 9.2764 48.9304 8.92702 48.7952 8.60111C48.6601 8.2752 48.4619 7.97916 48.2122 7.72992L41.909 1.42581C41.3702 0.886997 40.6968 0.644531 39.9965 0.644531ZM30.2991 9.2386L0.506836 39.0349V49.1377H10.6082L40.4005 19.3413L30.2991 9.2386Z" fill="white"/>
</svg>
