<svg width="39" height="31" viewBox="0 0 39 31" fill="none" xmlns="http://www.w3.org/2000/svg">
<path d="M22.5398 29.4031V25.9526L23.2653 25.8105L23.2658 25.8104C26.0075 25.2719 28.116 24.1658 29.2789 22.3636L29.279 22.3636L29.2851 22.3539C29.8669 21.4287 30.198 20.3708 30.2453 19.2817L30.2898 18.2587H29.2658H23.4492C23.2026 18.2587 22.9694 18.1622 22.8001 17.9958C22.6314 17.83 22.5398 17.6087 22.5398 17.3817V4.37984C22.5398 2.88848 23.7799 1.64543 25.3389 1.64543H36.6775C36.9241 1.64543 37.1572 1.74187 37.3265 1.90826C37.4952 2.07408 37.5869 2.29536 37.5869 2.52244V17.3817V17.4804L37.5945 17.5177C37.596 17.5465 37.5979 17.5888 37.5994 17.6438C37.6028 17.7698 37.6039 17.9585 37.5945 18.1984C37.5758 18.679 37.5155 19.3587 37.3511 20.1486C37.0217 21.7317 36.2823 23.7212 34.6568 25.4554L22.5398 29.4031ZM22.5398 29.4031H23.4492C28.5378 29.4031 32.2495 28.0202 34.6564 25.4558L22.5398 29.4031ZM37.5921 17.4811C37.5922 17.4818 37.5923 17.483 37.5924 17.4848C37.5906 17.4675 37.5906 17.4628 37.5921 17.4811ZM1.73918 29.4031V25.9526L2.46469 25.8105L2.46524 25.8104C5.20687 25.2719 7.31539 24.1658 8.47831 22.3636L8.47837 22.3636L8.48447 22.3539C9.06625 21.4287 9.39735 20.3708 9.4447 19.2817L9.48918 18.2587H8.46524H2.64855C2.40196 18.2587 2.16881 18.1622 1.99952 17.9958L1.31921 18.688L1.99951 17.9958C1.8308 17.83 1.73918 17.6087 1.73918 17.3817V4.37984C1.73918 2.88848 2.97933 1.64543 4.53831 1.64543H15.8769C16.1235 1.64543 16.3566 1.74187 16.5259 1.90826C16.6946 2.07409 16.7863 2.29536 16.7863 2.52244V17.3817V17.4804L16.7939 17.5179C16.7955 17.5466 16.7974 17.589 16.7989 17.6441C16.8023 17.7701 16.8035 17.9588 16.7942 18.1987C16.7756 18.6793 16.7155 19.3589 16.5512 20.1488C16.222 21.7319 15.4826 23.7214 13.856 25.4556C11.449 28.0202 7.73731 29.4031 2.64855 29.4031H1.73918ZM16.7915 17.4814C16.7916 17.4821 16.7917 17.4831 16.7918 17.4847C16.79 17.4678 16.79 17.4633 16.7915 17.4814Z" stroke="white" stroke-width="1.96078"/>
</svg>
