<svg width="23" height="23" viewBox="0 0 23 23" fill="none" xmlns="http://www.w3.org/2000/svg">
<path d="M22.5623 21.1917L16.4263 15.0557C17.9008 13.2855 18.6361 11.015 18.4792 8.7165C18.3223 6.41799 17.2853 4.26846 15.5839 2.71506C13.8825 1.16166 11.6477 0.324002 9.34447 0.376336C7.04121 0.42867 4.8468 1.36697 3.21772 2.99604C1.58865 4.62512 0.65035 6.81953 0.598016 9.12279C0.545681 11.4261 1.38334 13.6608 2.93674 15.3622C4.49014 17.0636 6.63967 18.1006 8.93818 18.2575C11.2367 18.4144 13.5072 17.6791 15.2774 16.2046L21.4134 22.3406L22.5623 21.1917ZM2.24976 9.34058C2.24976 7.8943 2.67863 6.48051 3.48214 5.27797C4.28565 4.07544 5.4277 3.13818 6.76389 2.58471C8.10007 2.03124 9.57037 1.88643 10.9889 2.16859C12.4073 2.45074 13.7103 3.14719 14.733 4.16986C15.7556 5.19253 16.4521 6.49549 16.7343 7.91398C17.0164 9.33247 16.8716 10.8028 16.3181 12.139C15.7647 13.4751 14.8274 14.6172 13.6249 15.4207C12.4223 16.2242 11.0085 16.6531 9.56226 16.6531C7.62352 16.6509 5.76481 15.8798 4.39392 14.5089C3.02302 13.138 2.25191 11.2793 2.24976 9.34058Z" fill="#6A6A6A"/>
</svg>
