<svg width="16" height="18" viewBox="0 0 16 18" fill="none"
    xmlns="http://www.w3.org/2000/svg">
    <path d="M11.5093 10.151V11.231H7.18099V5.83084H8.26307V10.151H11.5093ZM13.4622 4.64955C14.223 5.41458 14.8091 6.24992 15.2205 7.15557C15.632 8.06123 15.8377 9.0597 15.8377 10.151C15.8377 10.8485 15.7475 11.5179 15.5671 12.1592C15.3868 12.8004 15.1332 13.4023 14.8063 13.9649C14.4794 14.5274 14.0849 15.0365 13.6228 15.4921C13.1606 15.9477 12.6506 16.3415 12.0926 16.6734C11.5347 17.0053 10.9317 17.2612 10.2835 17.4412C9.63541 17.6212 8.96192 17.7112 8.26307 17.7112C7.56423 17.7112 6.89356 17.6212 6.25107 17.4412C5.60858 17.2612 5.00555 17.0081 4.44196 16.6818C3.87837 16.3556 3.36833 15.9618 2.91182 15.5005C2.45532 15.0393 2.06081 14.5302 1.72829 13.9733C1.39578 13.4164 1.13935 12.8145 0.958998 12.1676C0.77865 11.5207 0.688477 10.8485 0.688477 10.151C0.688477 9.52659 0.761743 8.91907 0.908275 8.32843C1.05481 7.73778 1.26615 7.18089 1.54231 6.65775C1.81847 6.1346 2.15098 5.65084 2.53986 5.20645C2.92873 4.76206 3.36269 4.36548 3.84174 4.01672C4.32079 3.66796 4.84211 3.37826 5.40569 3.14763C5.96928 2.917 6.56104 2.75668 7.18099 2.66668V1.5107H5.01682V0.430664H10.4272V1.5107H8.26307V2.59074C9.04646 2.59074 9.8073 2.70605 10.5456 2.93668C11.2839 3.16732 11.9743 3.51045 12.6168 3.96609L14.3752 2.21104L15.136 2.97044L13.4622 4.64955ZM8.26307 16.6312C9.15917 16.6312 9.99892 16.4624 10.7823 16.1249C11.5657 15.7874 12.2533 15.3233 12.845 14.7327C13.4368 14.1421 13.9018 13.4558 14.2399 12.6739C14.5781 11.892 14.7499 11.051 14.7556 10.151C14.7556 9.25658 14.5865 8.41843 14.2484 7.63653C13.9102 6.85463 13.4452 6.16835 12.8535 5.57771C12.2617 4.98707 11.5741 4.52299 10.7908 4.18548C10.0074 3.84796 9.16481 3.6764 8.26307 3.67077C7.36697 3.67077 6.52723 3.83953 5.74384 4.17704C4.96046 4.51455 4.27288 4.97863 3.68112 5.56927C3.08935 6.15992 2.62439 6.84619 2.28624 7.62809C1.94809 8.40999 1.7762 9.25096 1.77056 10.151C1.77056 11.0454 1.93964 11.8835 2.27779 12.6654C2.61594 13.4473 3.0809 14.1336 3.67266 14.7243C4.26443 15.3149 4.95201 15.779 5.73539 16.1165C6.51877 16.454 7.36134 16.6256 8.26307 16.6312Z" fill="#413735"/>
</svg>
