<svg width="67" height="64" viewBox="0 0 67 64" fill="none" xmlns="http://www.w3.org/2000/svg">
<path fill-rule="evenodd" clip-rule="evenodd" d="M66.4717 32C66.4717 49.672 51.7587 64 33.6118 64C15.465 64 0.751953 49.672 0.751953 32C0.751953 14.328 15.465 0 33.6118 0C51.7587 0 66.4717 14.328 66.4717 32ZM17.1819 43.2H41.8268V25.6C41.8268 24.9697 41.6993 24.3455 41.4516 23.7631C41.2039 23.1808 40.8408 22.6516 40.3831 22.2059C39.9254 21.7602 39.3821 21.4066 38.7841 21.1654C38.1861 20.9242 37.5451 20.8 36.8978 20.8H12.2529V38.4C12.2529 39.673 12.7722 40.8939 13.6966 41.7941C14.1543 42.2398 14.6976 42.5934 15.2957 42.8346C15.8937 43.0758 16.5346 43.2 17.1819 43.2ZM45.1128 36.8L54.9708 43.2V20.8L45.1128 27.2V36.8Z" fill="#3AC4B2"/>
</svg>
