<svg width="89" height="116" viewBox="0 0 89 116" fill="none" xmlns="http://www.w3.org/2000/svg">
<path d="M77.7323 38.8788H72.2472V27.9087C72.2472 12.7699 59.9607 0.483398 44.8219 0.483398C29.6831 0.483398 17.3966 12.7699 17.3966 27.9087V38.8788H11.9115C5.87796 38.8788 0.941406 43.8154 0.941406 49.849V104.7C0.941406 110.733 5.87796 115.67 11.9115 115.67H77.7323C83.7659 115.67 88.7024 110.733 88.7024 104.7V49.849C88.7024 43.8154 83.7659 38.8788 77.7323 38.8788ZM28.3667 27.9087C28.3667 18.8035 35.7167 11.4535 44.8219 11.4535C53.9271 11.4535 61.2771 18.8035 61.2771 27.9087V38.8788H28.3667V27.9087ZM77.7323 104.7H11.9115V49.849H77.7323V104.7ZM44.8219 88.2444C50.8555 88.2444 55.792 83.3079 55.792 77.2743C55.792 71.2407 50.8555 66.3042 44.8219 66.3042C38.7883 66.3042 33.8518 71.2407 33.8518 77.2743C33.8518 83.3079 38.7883 88.2444 44.8219 88.2444Z" fill="white"/>
</svg>
