<svg width="115" height="103" viewBox="0 0 115 103" fill="none" xmlns="http://www.w3.org/2000/svg">
<path d="M57.1882 11.985L102.368 90.045H12.0082L57.1882 11.985ZM1.62823 84.045C-2.99177 92.025 2.76823 102.045 12.0082 102.045H102.368C111.608 102.045 117.368 92.025 112.748 84.045L67.5682 5.985C62.9482 -1.995 51.4282 -1.995 46.8082 5.985L1.62823 84.045ZM51.1882 42.045V54.045C51.1882 57.345 53.8882 60.045 57.1882 60.045C60.4882 60.045 63.1882 57.345 63.1882 54.045V42.045C63.1882 38.745 60.4882 36.045 57.1882 36.045C53.8882 36.045 51.1882 38.745 51.1882 42.045ZM51.1882 72.045H63.1882V84.045H51.1882V72.045Z" fill="#3AC4B2"/>
</svg>
