<svg width="30" height="30" viewBox="0 0 30 30" fill="none" xmlns="http://www.w3.org/2000/svg">
<path d="M18.2138 18.7549L19.2862 21.0611C19.2862 21.0611 24.1075 22.0849 24.1075 24.5199C24.1075 26.2499 21.9625 26.2499 21.9625 26.2499H16.25L13.4375 24.6874" stroke="black" stroke-width="1.5" stroke-linecap="round" stroke-linejoin="round"/>
<path d="M11.7863 18.7549L10.7151 21.0611C10.7151 21.0611 5.89258 22.0849 5.89258 24.5199C5.89258 26.2499 8.03758 26.2499 8.03758 26.2499H10.6251L13.4376 24.6874L16.8751 22.4999" stroke="black" stroke-width="1.5" stroke-linecap="round" stroke-linejoin="round"/>
<path d="M3.75 19.9075C3.75 19.9075 6.42875 19.3312 8.03625 18.755C9.6425 10.6825 14.4625 11.2587 15 11.2587C15.5362 11.2587 20.3575 10.6825 21.9637 18.755C23.5712 19.33 26.25 19.9075 26.25 19.9075M15 8.75C15.663 8.75 16.2989 8.48661 16.7678 8.01777C17.2366 7.54893 17.5 6.91304 17.5 6.25C17.5 5.58696 17.2366 4.95107 16.7678 4.48223C16.2989 4.01339 15.663 3.75 15 3.75C14.337 3.75 13.7011 4.01339 13.2322 4.48223C12.7634 4.95107 12.5 5.58696 12.5 6.25C12.5 6.91304 12.7634 7.54893 13.2322 8.01777C13.7011 8.48661 14.337 8.75 15 8.75Z" stroke="black" stroke-width="1.5" stroke-linecap="round" stroke-linejoin="round"/>
</svg>
