<svg width="228" height="93" viewBox="0 0 228 93" fill="none" xmlns="http://www.w3.org/2000/svg">
<path d="M12.032 71.36C11.6053 71.36 11.0933 71.232 10.496 70.976C8.61867 70.1227 8.10667 68.7787 8.96 66.944L28.48 22.848C29.3333 21.056 30.6773 20.544 32.512 21.312C34.432 22.1227 34.9653 23.4667 34.112 25.344L14.528 69.376C14.016 70.6987 13.184 71.36 12.032 71.36ZM19.584 54.592C18.7733 54.9333 18.0053 54.976 17.28 54.72C16.5973 54.4213 16.0427 53.8667 15.616 53.056L0.96 25.216C0.533333 24.4053 0.469333 23.6373 0.768 22.912C1.10933 22.144 1.68533 21.5893 2.496 21.248C3.30667 20.9067 4.07467 20.8853 4.8 21.184C5.52533 21.44 6.08 21.9733 6.464 22.784L20.48 50.624C20.9067 51.4347 21.056 52.224 20.928 52.992C20.8427 53.7173 20.3947 54.2507 19.584 54.592ZM54.882 56.256C51.426 56.256 48.3753 55.5093 45.73 54.016C43.0847 52.48 40.994 50.3893 39.458 47.744C37.9647 45.056 37.218 41.984 37.218 38.528C37.218 35.0293 37.9647 31.9573 39.458 29.312C40.994 26.624 43.0847 24.5333 45.73 23.04C48.3753 21.504 51.426 20.736 54.882 20.736C58.2953 20.736 61.3247 21.504 63.97 23.04C66.6153 24.5333 68.6847 26.624 70.178 29.312C71.714 31.9573 72.482 35.0293 72.482 38.528C72.482 41.984 71.7353 45.056 70.242 47.744C68.7487 50.3893 66.6793 52.48 64.034 54.016C61.3887 55.5093 58.338 56.256 54.882 56.256ZM54.882 50.496C57.1007 50.496 59.0633 49.984 60.77 48.96C62.4767 47.936 63.7993 46.528 64.738 44.736C65.7193 42.944 66.21 40.8747 66.21 38.528C66.21 36.1813 65.7193 34.112 64.738 32.32C63.7993 30.4853 62.4767 29.056 60.77 28.032C59.0633 27.008 57.1007 26.496 54.882 26.496C52.6633 26.496 50.7007 27.008 48.994 28.032C47.2873 29.056 45.9433 30.4853 44.962 32.32C43.9807 34.112 43.49 36.1813 43.49 38.528C43.49 40.8747 43.9807 42.944 44.962 44.736C45.9433 46.528 47.2873 47.936 48.994 48.96C50.7007 49.984 52.6633 50.496 54.882 50.496ZM96.9175 56.32C93.9735 56.32 91.3282 55.7013 88.9815 54.464C86.6775 53.184 84.8428 51.328 83.4775 48.896C82.1548 46.464 81.4935 43.4773 81.4935 39.936V24.192C81.4935 23.2533 81.7922 22.4853 82.3895 21.888C83.0295 21.248 83.8188 20.928 84.7575 20.928C85.6962 20.928 86.4642 21.248 87.0615 21.888C87.7015 22.4853 88.0215 23.2533 88.0215 24.192V39.936C88.0215 42.3253 88.4695 44.3093 89.3655 45.888C90.2615 47.424 91.4775 48.576 93.0135 49.344C94.5495 50.0693 96.2775 50.432 98.1975 50.432C100.032 50.432 101.654 50.0693 103.062 49.344C104.512 48.6187 105.664 47.6373 106.518 46.4C107.371 45.1627 107.798 43.776 107.798 42.24H111.83C111.83 44.8853 111.168 47.2747 109.846 49.408C108.566 51.5413 106.795 53.2267 104.534 54.464C102.315 55.7013 99.7762 56.32 96.9175 56.32ZM111.062 56C110.123 56 109.334 55.7013 108.694 55.104C108.096 54.464 107.798 53.6747 107.798 52.736V24.192C107.798 23.2107 108.096 22.4213 108.694 21.824C109.334 21.2267 110.123 20.928 111.062 20.928C112.043 20.928 112.832 21.2267 113.43 21.824C114.027 22.4213 114.326 23.2107 114.326 24.192V52.736C114.326 53.6747 114.027 54.464 113.43 55.104C112.832 55.7013 112.043 56 111.062 56ZM141.695 56.256C138.367 56.256 135.359 55.488 132.671 53.952C130.025 52.3733 127.913 50.24 126.335 47.552C124.799 44.864 124.031 41.8347 124.031 38.464C124.031 35.0933 124.735 32.0853 126.143 29.44C127.593 26.752 129.556 24.64 132.031 23.104C134.505 21.5253 137.3 20.736 140.415 20.736C142.932 20.736 145.257 21.2693 147.391 22.336C149.524 23.36 151.316 24.768 152.767 26.56V9.28C152.767 8.29867 153.065 7.50933 153.663 6.912C154.303 6.31467 155.092 6.016 156.031 6.016C157.012 6.016 157.801 6.31467 158.399 6.912C158.996 7.50933 159.295 8.29867 159.295 9.28V38.464C159.295 41.8347 158.505 44.864 156.927 47.552C155.391 50.24 153.3 52.3733 150.655 53.952C148.009 55.488 145.023 56.256 141.695 56.256ZM141.695 50.496C143.871 50.496 145.812 49.984 147.519 48.96C149.225 47.8933 150.569 46.4427 151.551 44.608C152.532 42.7733 153.023 40.7253 153.023 38.464C153.023 36.16 152.532 34.112 151.551 32.32C150.569 30.528 149.225 29.12 147.519 28.096C145.812 27.0293 143.871 26.496 141.695 26.496C139.561 26.496 137.62 27.0293 135.871 28.096C134.164 29.12 132.799 30.528 131.775 32.32C130.793 34.112 130.303 36.16 130.303 38.464C130.303 40.7253 130.793 42.7733 131.775 44.608C132.799 46.4427 134.164 47.8933 135.871 48.96C137.62 49.984 139.561 50.496 141.695 50.496ZM174.727 56C173.788 56 172.999 55.7013 172.359 55.104C171.761 54.464 171.463 53.6747 171.463 52.736V24.256C171.463 23.2747 171.761 22.4853 172.359 21.888C172.999 21.2907 173.788 20.992 174.727 20.992C175.708 20.992 176.497 21.2907 177.095 21.888C177.692 22.4853 177.991 23.2747 177.991 24.256V52.736C177.991 53.6747 177.692 54.464 177.095 55.104C176.497 55.7013 175.708 56 174.727 56ZM174.727 15.296C173.575 15.296 172.572 14.8907 171.719 14.08C170.908 13.2267 170.503 12.224 170.503 11.072C170.503 9.92 170.908 8.93866 171.719 8.128C172.572 7.27467 173.575 6.848 174.727 6.848C175.879 6.848 176.86 7.27467 177.671 8.128C178.524 8.93866 178.951 9.92 178.951 11.072C178.951 12.224 178.524 13.2267 177.671 14.08C176.86 14.8907 175.879 15.296 174.727 15.296ZM206.007 56.256C202.551 56.256 199.5 55.5093 196.855 54.016C194.21 52.48 192.119 50.3893 190.583 47.744C189.09 45.056 188.343 41.984 188.343 38.528C188.343 35.0293 189.09 31.9573 190.583 29.312C192.119 26.624 194.21 24.5333 196.855 23.04C199.5 21.504 202.551 20.736 206.007 20.736C209.42 20.736 212.45 21.504 215.095 23.04C217.74 24.5333 219.81 26.624 221.303 29.312C222.839 31.9573 223.607 35.0293 223.607 38.528C223.607 41.984 222.86 45.056 221.367 47.744C219.874 50.3893 217.804 52.48 215.159 54.016C212.514 55.5093 209.463 56.256 206.007 56.256ZM206.007 50.496C208.226 50.496 210.188 49.984 211.895 48.96C213.602 47.936 214.924 46.528 215.863 44.736C216.844 42.944 217.335 40.8747 217.335 38.528C217.335 36.1813 216.844 34.112 215.863 32.32C214.924 30.4853 213.602 29.056 211.895 28.032C210.188 27.008 208.226 26.496 206.007 26.496C203.788 26.496 201.826 27.008 200.119 28.032C198.412 29.056 197.068 30.4853 196.087 32.32C195.106 34.112 194.615 36.1813 194.615 38.528C194.615 40.8747 195.106 42.944 196.087 44.736C197.068 46.528 198.412 47.936 200.119 48.96C201.826 49.984 203.788 50.496 206.007 50.496Z" fill="white"/>
<path d="M59.78 88.1C58.7133 88.1 57.76 87.86 56.92 87.38C56.08 86.9 55.42 86.24 54.94 85.4C54.46 84.56 54.22 83.6067 54.22 82.54C54.22 81.46 54.46 80.5 54.94 79.66C55.42 78.82 56.08 78.16 56.92 77.68C57.76 77.2 58.7133 76.96 59.78 76.96C60.8467 76.96 61.7933 77.2 62.62 77.68C63.46 78.16 64.12 78.82 64.6 79.66C65.08 80.5 65.3267 81.46 65.34 82.54C65.34 83.6067 65.0933 84.56 64.6 85.4C64.12 86.24 63.46 86.9 62.62 87.38C61.7933 87.86 60.8467 88.1 59.78 88.1ZM59.78 86.7C60.5533 86.7 61.2467 86.52 61.86 86.16C62.4733 85.8 62.9533 85.3067 63.3 84.68C63.6467 84.0533 63.82 83.34 63.82 82.54C63.82 81.74 63.6467 81.0267 63.3 80.4C62.9533 79.76 62.4733 79.26 61.86 78.9C61.2467 78.54 60.5533 78.36 59.78 78.36C59.0067 78.36 58.3133 78.54 57.7 78.9C57.0867 79.26 56.6 79.76 56.24 80.4C55.8933 81.0267 55.72 81.74 55.72 82.54C55.72 83.34 55.8933 84.0533 56.24 84.68C56.6 85.3067 57.0867 85.8 57.7 86.16C58.3133 86.52 59.0067 86.7 59.78 86.7ZM77.7152 88C77.4885 88 77.3018 87.9267 77.1552 87.78C77.0085 87.6333 76.9352 87.4533 76.9352 87.24V82.04C76.9352 81.2133 76.7752 80.5333 76.4552 80C76.1485 79.4667 75.7218 79.0667 75.1752 78.8C74.6418 78.5333 74.0352 78.4 73.3552 78.4C72.7018 78.4 72.1085 78.5267 71.5752 78.78C71.0552 79.0333 70.6418 79.38 70.3352 79.82C70.0285 80.26 69.8752 80.76 69.8752 81.32H68.7752C68.8018 80.48 69.0285 79.7333 69.4552 79.08C69.8818 78.4133 70.4485 77.8933 71.1552 77.52C71.8618 77.1333 72.6485 76.94 73.5152 76.94C74.4618 76.94 75.3085 77.14 76.0552 77.54C76.8018 77.9267 77.3885 78.5 77.8152 79.26C78.2552 80.02 78.4752 80.9467 78.4752 82.04V87.24C78.4752 87.4533 78.4018 87.6333 78.2552 87.78C78.1085 87.9267 77.9285 88 77.7152 88ZM69.1152 88C68.8752 88 68.6818 87.9333 68.5352 87.8C68.4018 87.6533 68.3352 87.4667 68.3352 87.24V77.84C68.3352 77.6 68.4018 77.4133 68.5352 77.28C68.6818 77.1333 68.8752 77.06 69.1152 77.06C69.3418 77.06 69.5218 77.1333 69.6552 77.28C69.8018 77.4133 69.8752 77.6 69.8752 77.84V87.24C69.8752 87.4667 69.8018 87.6533 69.6552 87.8C69.5218 87.9333 69.3418 88 69.1152 88ZM84.2303 88C83.697 88 83.217 87.8533 82.7903 87.56C82.377 87.2667 82.0503 86.86 81.8103 86.34C81.5836 85.82 81.4703 85.22 81.4703 84.54V73.14C81.4703 72.9133 81.537 72.7333 81.6703 72.6C81.817 72.4533 82.0036 72.38 82.2303 72.38C82.457 72.38 82.637 72.4533 82.7703 72.6C82.917 72.7333 82.9903 72.9133 82.9903 73.14V84.54C82.9903 85.1133 83.1036 85.58 83.3303 85.94C83.5703 86.3 83.8703 86.48 84.2303 86.48H84.7303C84.9303 86.48 85.0903 86.5533 85.2103 86.7C85.3303 86.8333 85.3903 87.0133 85.3903 87.24C85.3903 87.4667 85.3036 87.6533 85.1303 87.8C84.9703 87.9333 84.757 88 84.4903 88H84.2303ZM88.6148 88C88.3748 88 88.1815 87.9333 88.0348 87.8C87.9015 87.6533 87.8348 87.46 87.8348 87.22V77.84C87.8348 77.6 87.9015 77.4133 88.0348 77.28C88.1815 77.1333 88.3748 77.06 88.6148 77.06C88.8415 77.06 89.0215 77.1333 89.1548 77.28C89.3015 77.4133 89.3748 77.6 89.3748 77.84V87.22C89.3748 87.46 89.3015 87.6533 89.1548 87.8C89.0215 87.9333 88.8415 88 88.6148 88ZM88.5948 74.98C88.3015 74.98 88.0482 74.8733 87.8348 74.66C87.6215 74.4467 87.5148 74.1867 87.5148 73.88C87.5148 73.5467 87.6215 73.2867 87.8348 73.1C88.0615 72.9 88.3215 72.8 88.6148 72.8C88.8948 72.8 89.1415 72.9 89.3548 73.1C89.5815 73.2867 89.6948 73.5467 89.6948 73.88C89.6948 74.1867 89.5882 74.4467 89.3748 74.66C89.1615 74.8733 88.9015 74.98 88.5948 74.98ZM102.676 88C102.449 88 102.263 87.9267 102.116 87.78C101.969 87.6333 101.896 87.4533 101.896 87.24V82.04C101.896 81.2133 101.736 80.5333 101.416 80C101.109 79.4667 100.683 79.0667 100.136 78.8C99.6028 78.5333 98.9961 78.4 98.3161 78.4C97.6628 78.4 97.0694 78.5267 96.5361 78.78C96.0161 79.0333 95.6028 79.38 95.2961 79.82C94.9894 80.26 94.8361 80.76 94.8361 81.32H93.7361C93.7628 80.48 93.9894 79.7333 94.4161 79.08C94.8428 78.4133 95.4094 77.8933 96.1161 77.52C96.8228 77.1333 97.6094 76.94 98.4761 76.94C99.4228 76.94 100.269 77.14 101.016 77.54C101.763 77.9267 102.349 78.5 102.776 79.26C103.216 80.02 103.436 80.9467 103.436 82.04V87.24C103.436 87.4533 103.363 87.6333 103.216 87.78C103.069 87.9267 102.889 88 102.676 88ZM94.0761 88C93.8361 88 93.6428 87.9333 93.4961 87.8C93.3628 87.6533 93.2961 87.4667 93.2961 87.24V77.84C93.2961 77.6 93.3628 77.4133 93.4961 77.28C93.6428 77.1333 93.8361 77.06 94.0761 77.06C94.3028 77.06 94.4828 77.1333 94.6161 77.28C94.7628 77.4133 94.8361 77.6 94.8361 77.84V87.24C94.8361 87.4667 94.7628 87.6533 94.6161 87.8C94.4828 87.9333 94.3028 88 94.0761 88ZM111.791 88.1C110.711 88.1 109.751 87.8667 108.911 87.4C108.085 86.92 107.431 86.26 106.951 85.42C106.485 84.58 106.251 83.62 106.251 82.54C106.251 81.4467 106.471 80.4867 106.911 79.66C107.365 78.82 107.985 78.16 108.771 77.68C109.558 77.2 110.465 76.96 111.491 76.96C112.505 76.96 113.385 77.1933 114.131 77.66C114.891 78.1133 115.478 78.7467 115.891 79.56C116.305 80.3733 116.511 81.3 116.511 82.34C116.511 82.5533 116.445 82.7267 116.311 82.86C116.178 82.98 116.005 83.04 115.791 83.04H107.291V81.76H115.951L115.091 82.38C115.105 81.6067 114.965 80.9133 114.671 80.3C114.378 79.6867 113.958 79.2067 113.411 78.86C112.878 78.5133 112.238 78.34 111.491 78.34C110.731 78.34 110.065 78.52 109.491 78.88C108.918 79.24 108.471 79.74 108.151 80.38C107.845 81.0067 107.691 81.7267 107.691 82.54C107.691 83.3533 107.865 84.0733 108.211 84.7C108.571 85.3267 109.058 85.82 109.671 86.18C110.285 86.54 110.991 86.72 111.791 86.72C112.271 86.72 112.751 86.64 113.231 86.48C113.725 86.3067 114.118 86.0933 114.411 85.84C114.558 85.72 114.725 85.66 114.911 85.66C115.098 85.6467 115.258 85.6933 115.391 85.8C115.565 85.96 115.651 86.1333 115.651 86.32C115.665 86.5067 115.591 86.6667 115.431 86.8C114.991 87.1733 114.431 87.4867 113.751 87.74C113.071 87.98 112.418 88.1 111.791 88.1ZM126.856 92.76C126.749 92.76 126.629 92.7333 126.496 92.68C126.042 92.48 125.916 92.16 126.116 91.72L132.576 77.48C132.776 77.0533 133.096 76.9333 133.536 77.12C133.989 77.3067 134.116 77.62 133.916 78.06L127.436 92.3C127.302 92.6067 127.109 92.76 126.856 92.76ZM129.076 87.66C128.876 87.7533 128.689 87.7733 128.516 87.72C128.342 87.6533 128.202 87.52 128.096 87.32L123.636 78.08C123.542 77.88 123.529 77.6933 123.596 77.52C123.662 77.3467 123.796 77.2133 123.996 77.12C124.196 77.0267 124.382 77.0133 124.556 77.08C124.729 77.1333 124.862 77.26 124.956 77.46L129.336 86.7C129.442 86.9 129.476 87.0867 129.436 87.26C129.396 87.4333 129.276 87.5667 129.076 87.66ZM140.522 88.1C139.456 88.1 138.502 87.86 137.662 87.38C136.822 86.9 136.162 86.24 135.682 85.4C135.202 84.56 134.962 83.6067 134.962 82.54C134.962 81.46 135.202 80.5 135.682 79.66C136.162 78.82 136.822 78.16 137.662 77.68C138.502 77.2 139.456 76.96 140.522 76.96C141.589 76.96 142.536 77.2 143.362 77.68C144.202 78.16 144.862 78.82 145.342 79.66C145.822 80.5 146.069 81.46 146.082 82.54C146.082 83.6067 145.836 84.56 145.342 85.4C144.862 86.24 144.202 86.9 143.362 87.38C142.536 87.86 141.589 88.1 140.522 88.1ZM140.522 86.7C141.296 86.7 141.989 86.52 142.602 86.16C143.216 85.8 143.696 85.3067 144.042 84.68C144.389 84.0533 144.562 83.34 144.562 82.54C144.562 81.74 144.389 81.0267 144.042 80.4C143.696 79.76 143.216 79.26 142.602 78.9C141.989 78.54 141.296 78.36 140.522 78.36C139.749 78.36 139.056 78.54 138.442 78.9C137.829 79.26 137.342 79.76 136.982 80.4C136.636 81.0267 136.462 81.74 136.462 82.54C136.462 83.34 136.636 84.0533 136.982 84.68C137.342 85.3067 137.829 85.8 138.442 86.16C139.056 86.52 139.749 86.7 140.522 86.7ZM153.897 88.1C152.844 88.1 151.911 87.8667 151.097 87.4C150.284 86.92 149.644 86.26 149.177 85.42C148.724 84.58 148.497 83.62 148.497 82.54C148.497 81.4467 148.737 80.48 149.217 79.64C149.697 78.8 150.357 78.1467 151.197 77.68C152.037 77.2 152.991 76.96 154.057 76.96C155.137 76.96 156.091 77.2 156.917 77.68C157.757 78.1467 158.411 78.8 158.877 79.64C159.357 80.48 159.604 81.4467 159.617 82.54L158.717 83.02C158.717 84.0067 158.511 84.8867 158.097 85.66C157.684 86.42 157.111 87.02 156.377 87.46C155.657 87.8867 154.831 88.1 153.897 88.1ZM154.097 92.32C153.044 92.32 152.117 92.12 151.317 91.72C150.517 91.3333 149.857 90.8 149.337 90.12C149.191 89.96 149.124 89.7867 149.137 89.6C149.164 89.4133 149.264 89.26 149.437 89.14C149.611 89.02 149.804 88.98 150.017 89.02C150.231 89.06 150.397 89.16 150.517 89.32C150.904 89.8 151.397 90.1867 151.997 90.48C152.611 90.7733 153.317 90.92 154.117 90.92C154.864 90.92 155.537 90.74 156.137 90.38C156.737 90.02 157.211 89.5133 157.557 88.86C157.917 88.2067 158.097 87.44 158.097 86.56V83.52L158.677 82.36L159.617 82.54V86.62C159.617 87.7 159.377 88.6667 158.897 89.52C158.417 90.3867 157.764 91.0667 156.937 91.56C156.111 92.0667 155.164 92.32 154.097 92.32ZM154.057 86.7C154.844 86.7 155.537 86.5267 156.137 86.18C156.751 85.82 157.231 85.3267 157.577 84.7C157.924 84.0733 158.097 83.3533 158.097 82.54C158.097 81.7267 157.924 81.0067 157.577 80.38C157.231 79.74 156.751 79.2467 156.137 78.9C155.537 78.54 154.844 78.36 154.057 78.36C153.271 78.36 152.571 78.54 151.957 78.9C151.344 79.2467 150.864 79.74 150.517 80.38C150.171 81.0067 149.997 81.7267 149.997 82.54C149.997 83.3533 150.171 84.0733 150.517 84.7C150.864 85.3267 151.344 85.82 151.957 86.18C152.571 86.5267 153.271 86.7 154.057 86.7ZM167.433 88.1C166.406 88.1 165.486 87.86 164.673 87.38C163.859 86.8867 163.212 86.22 162.733 85.38C162.266 84.54 162.033 83.5933 162.033 82.54C162.033 81.4733 162.273 80.52 162.753 79.68C163.246 78.84 163.913 78.18 164.753 77.7C165.593 77.2067 166.539 76.96 167.593 76.96C168.646 76.96 169.586 77.2067 170.413 77.7C171.253 78.18 171.913 78.84 172.393 79.68C172.886 80.52 173.139 81.4733 173.153 82.54L172.533 83.02C172.533 83.98 172.306 84.8467 171.853 85.62C171.413 86.38 170.806 86.9867 170.033 87.44C169.273 87.88 168.406 88.1 167.433 88.1ZM167.593 86.7C168.366 86.7 169.053 86.52 169.653 86.16C170.266 85.8 170.746 85.3067 171.092 84.68C171.453 84.04 171.633 83.3267 171.633 82.54C171.633 81.74 171.453 81.0267 171.092 80.4C170.746 79.7733 170.266 79.28 169.653 78.92C169.053 78.5467 168.366 78.36 167.593 78.36C166.833 78.36 166.146 78.5467 165.533 78.92C164.919 79.28 164.433 79.7733 164.073 80.4C163.713 81.0267 163.533 81.74 163.533 82.54C163.533 83.3267 163.713 84.04 164.073 84.68C164.433 85.3067 164.919 85.8 165.533 86.16C166.146 86.52 166.833 86.7 167.593 86.7ZM172.373 88C172.146 88 171.959 87.9333 171.813 87.8C171.666 87.6533 171.593 87.4667 171.593 87.24V83.82L171.973 82.24L173.153 82.54V87.24C173.153 87.4667 173.079 87.6533 172.933 87.8C172.786 87.9333 172.599 88 172.373 88Z" fill="white"/>
</svg>
