<svg width="189" height="77" viewBox="0 0 189 77" fill="none" xmlns="http://www.w3.org/2000/svg">
<path d="M26.8864 18.3141C27.9802 18.7375 28.5272 19.4255 28.5272 20.3782C28.5272 20.731 28.4213 21.1544 28.2096 21.6484L12.0142 58.0615C11.5908 59.1554 10.9028 59.7023 9.9501 59.7023C9.59726 59.7023 9.17385 59.5964 8.67988 59.3847C7.62135 58.926 7.09209 58.238 7.09209 57.3206C7.09209 56.8972 7.19795 56.4738 7.40965 56.0504L12.7023 44.142L0.793891 21.5426C0.617471 21.225 0.529261 20.8545 0.529261 20.4311C0.529261 19.9724 0.670397 19.549 0.952669 19.1609C1.23494 18.7728 1.60542 18.4728 2.06412 18.2611C2.38167 18.12 2.73451 18.0494 3.12264 18.0494C4.11059 18.0494 4.85156 18.5434 5.34553 19.5314L15.031 38.7965L23.5521 19.5843C24.0108 18.5611 24.6988 18.0494 25.6162 18.0494C26.0749 18.0494 26.4983 18.1376 26.8864 18.3141ZM45.3858 47.2117C42.563 47.2117 40.0402 46.5942 37.8173 45.3593C35.5944 44.0891 33.8655 42.3425 32.6306 40.1196C31.3956 37.8967 30.7782 35.3739 30.7782 32.5512C30.7782 29.6932 31.3956 27.1527 32.6306 24.9298C33.8655 22.7069 35.5944 20.978 37.8173 19.7431C40.0402 18.4728 42.563 17.8377 45.3858 17.8377C48.1732 17.8377 50.6607 18.4728 52.8483 19.7431C55.0712 20.978 56.8001 22.7069 58.0351 24.9298C59.3053 27.1527 59.9404 29.6932 59.9404 32.5512C59.9404 35.3739 59.323 37.8967 58.088 40.1196C56.8531 42.3425 55.1242 44.0891 52.9013 45.3593C50.7136 46.5942 48.2085 47.2117 45.3858 47.2117ZM45.3858 42.4484C47.1852 42.4484 48.7907 42.0249 50.202 41.1781C51.6487 40.3313 52.7601 39.1669 53.5364 37.685C54.3479 36.1678 54.7537 34.4565 54.7537 32.5512C54.7537 30.6458 54.3479 28.9346 53.5364 27.4174C52.7601 25.9001 51.6487 24.7181 50.202 23.8713C48.7907 23.0245 47.1852 22.6011 45.3858 22.6011C43.5863 22.6011 41.9632 23.0245 40.5166 23.8713C39.1052 24.7181 37.9938 25.9001 37.1822 27.4174C36.3707 28.9346 35.9649 30.6458 35.9649 32.5512C35.9649 34.4565 36.3707 36.1678 37.1822 37.685C37.9938 39.1669 39.1052 40.3313 40.5166 41.1781C41.9632 42.0249 43.5863 42.4484 45.3858 42.4484ZM91.8445 17.9965C92.656 17.9965 93.3088 18.2435 93.8028 18.7375C94.2967 19.2315 94.5437 19.8842 94.5437 20.6957V44.3008C94.5437 45.077 94.2967 45.7298 93.8028 46.259C93.3088 46.753 92.656 47 91.8445 47C91.0683 47 90.4155 46.753 89.8862 46.259C89.3923 45.7298 89.1453 45.077 89.1453 44.3008V43.7186C88.0162 44.8477 86.6754 45.7298 85.1229 46.3649C83.5704 46.9647 81.9121 47.2646 80.1478 47.2646C77.7132 47.2646 75.5256 46.7354 73.585 45.6768C71.6444 44.6183 70.1272 43.0835 69.0334 41.0723C67.9396 39.0258 67.3927 36.5736 67.3927 33.7156V20.6957C67.3927 19.9195 67.6397 19.2844 68.1336 18.7904C68.6629 18.2611 69.3156 17.9965 70.0919 17.9965C70.8681 17.9965 71.5033 18.2611 71.9972 18.7904C72.5265 19.2844 72.7911 19.9195 72.7911 20.6957V33.7156C72.7911 36.5736 73.5497 38.7435 75.0669 40.2255C76.6194 41.6721 78.6659 42.3954 81.2064 42.3954C82.6883 42.3954 84.0291 42.0955 85.2288 41.4957C86.4637 40.8959 87.4164 40.0843 88.0868 39.0611C88.7924 38.0379 89.1453 36.8911 89.1453 35.6209V20.6957C89.1453 19.8842 89.3923 19.2315 89.8862 18.7375C90.4155 18.2435 91.0683 17.9965 91.8445 17.9965ZM129.033 5.66474C129.844 5.66474 130.497 5.91173 130.991 6.40571C131.485 6.89968 131.732 7.55244 131.732 8.36397V32.4983C131.732 35.2504 131.079 37.7556 129.773 40.0138C128.503 42.2367 126.757 44.0009 124.534 45.3064C122.346 46.5766 119.894 47.2117 117.177 47.2117C114.46 47.2117 111.973 46.5766 109.714 45.3064C107.492 44.0009 105.745 42.2367 104.475 40.0138C103.205 37.7556 102.569 35.2504 102.569 32.4983C102.569 29.7461 103.152 27.2586 104.316 25.0357C105.516 22.7775 107.139 21.0133 109.185 19.7431C111.267 18.4728 113.578 17.8377 116.119 17.8377C118.165 17.8377 120.07 18.2611 121.835 19.108C123.599 19.9548 125.098 21.1368 126.333 22.654V8.36397C126.333 7.55244 126.58 6.89968 127.074 6.40571C127.604 5.91173 128.256 5.66474 129.033 5.66474ZM117.177 42.4484C118.941 42.4484 120.529 42.0249 121.94 41.1781C123.387 40.296 124.516 39.0964 125.328 37.5792C126.139 36.0619 126.545 34.3683 126.545 32.4983C126.545 30.6282 126.139 28.9522 125.328 27.4703C124.516 25.9531 123.387 24.7711 121.94 23.9242C120.529 23.0421 118.941 22.6011 117.177 22.6011C115.413 22.6011 113.807 23.0421 112.361 23.9242C110.949 24.7711 109.82 25.9531 108.974 27.4703C108.162 28.9522 107.756 30.6282 107.756 32.4983C107.756 34.3683 108.162 36.0619 108.974 37.5792C109.82 39.0964 110.949 40.296 112.361 41.1781C113.807 42.0249 115.413 42.4484 117.177 42.4484ZM144.494 47C143.717 47 143.065 46.753 142.535 46.259C142.041 45.7298 141.794 45.077 141.794 44.3008V20.7487C141.794 19.9371 142.041 19.2844 142.535 18.7904C143.065 18.2964 143.717 18.0494 144.494 18.0494C145.305 18.0494 145.958 18.2964 146.452 18.7904C146.946 19.2844 147.193 19.9371 147.193 20.7487V44.3008C147.193 45.077 146.946 45.7298 146.452 46.259C145.958 46.753 145.305 47 144.494 47ZM144.494 13.339C143.541 13.339 142.712 13.0038 142.006 12.3334C141.336 11.6277 141 10.7986 141 9.8459C141 8.89323 141.336 8.0817 142.006 7.4113C142.712 6.70562 143.541 6.35278 144.494 6.35278C145.446 6.35278 146.258 6.70562 146.928 7.4113C147.634 8.0817 147.987 8.89323 147.987 9.8459C147.987 10.7986 147.634 11.6277 146.928 12.3334C146.258 13.0038 145.446 13.339 144.494 13.339ZM170.362 47.2117C167.539 47.2117 165.016 46.5942 162.793 45.3593C160.57 44.0891 158.841 42.3425 157.606 40.1196C156.371 37.8967 155.754 35.3739 155.754 32.5512C155.754 29.6932 156.371 27.1527 157.606 24.9298C158.841 22.7069 160.57 20.978 162.793 19.7431C165.016 18.4728 167.539 17.8377 170.362 17.8377C173.149 17.8377 175.637 18.4728 177.824 19.7431C180.047 20.978 181.776 22.7069 183.011 24.9298C184.281 27.1527 184.916 29.6932 184.916 32.5512C184.916 35.3739 184.299 37.8967 183.064 40.1196C181.829 42.3425 180.1 44.0891 177.877 45.3593C175.689 46.5942 173.184 47.2117 170.362 47.2117ZM170.362 42.4484C172.161 42.4484 173.766 42.0249 175.178 41.1781C176.624 40.3313 177.736 39.1669 178.512 37.685C179.324 36.1678 179.729 34.4565 179.729 32.5512C179.729 30.6458 179.324 28.9346 178.512 27.4174C177.736 25.9001 176.624 24.7181 175.178 23.8713C173.766 23.0245 172.161 22.6011 170.362 22.6011C168.562 22.6011 166.939 23.0245 165.492 23.8713C164.081 24.7181 162.97 25.9001 162.158 27.4174C161.347 28.9346 160.941 30.6458 160.941 32.5512C160.941 34.4565 161.347 36.1678 162.158 37.685C162.97 39.1669 164.081 40.3313 165.492 41.1781C166.939 42.0249 168.562 42.4484 170.362 42.4484Z" fill="black"/>
<path d="M49.4367 72.7975C48.5656 72.7975 47.7772 72.5991 47.0716 72.2021C46.3769 71.8052 45.8311 71.2594 45.4342 70.5647C45.0372 69.859 44.8387 69.0707 44.8387 68.1996C44.8387 67.3285 45.0372 66.5401 45.4342 65.8345C45.8311 65.1288 46.3769 64.5775 47.0716 64.1805C47.7772 63.7836 48.5656 63.5851 49.4367 63.5851C50.3078 63.5851 51.0906 63.7836 51.7853 64.1805C52.4799 64.5775 53.0257 65.1288 53.4227 65.8345C53.8307 66.5401 54.0346 67.3285 54.0346 68.1996C54.0346 69.0707 53.8362 69.859 53.4392 70.5647C53.0423 71.2594 52.491 71.8052 51.7853 72.2021C51.0906 72.5991 50.3078 72.7975 49.4367 72.7975ZM49.4367 71.6398C50.0762 71.6398 50.6496 71.4909 51.1568 71.1932C51.664 70.8955 52.0609 70.4875 52.3476 69.9693C52.6343 69.44 52.7776 68.8501 52.7776 68.1996C52.7776 67.538 52.6343 66.9481 52.3476 66.4299C52.0609 65.9006 51.664 65.4871 51.1568 65.1894C50.6496 64.8917 50.0762 64.7429 49.4367 64.7429C48.8082 64.7429 48.2348 64.8917 47.7166 65.1894C47.2094 65.4871 46.8069 65.9006 46.5092 66.4299C46.2225 66.9481 46.0792 67.538 46.0792 68.1996C46.0792 68.8501 46.2225 69.44 46.5092 69.9693C46.8069 70.4875 47.2094 70.8955 47.7166 71.1932C48.2348 71.4909 48.8082 71.6398 49.4367 71.6398ZM60.7952 63.5686C61.5781 63.5686 62.2783 63.734 62.8958 64.0647C63.5242 64.3955 64.0149 64.8807 64.3678 65.5202C64.7206 66.1487 64.897 66.904 64.897 67.7861V72.0863C64.897 72.2628 64.8364 72.4116 64.7151 72.5329C64.5938 72.6542 64.4449 72.7148 64.2685 72.7148C64.0811 72.7148 63.9267 72.6542 63.8054 72.5329C63.6841 72.4116 63.6235 72.2628 63.6235 72.0863V67.7861C63.6235 66.8048 63.3478 66.0605 62.7965 65.5533C62.2562 65.0351 61.545 64.7759 60.6629 64.7759C60.1226 64.7759 59.632 64.8807 59.1909 65.0902C58.7609 65.2997 58.4191 65.5919 58.1655 65.9668C57.9119 66.3306 57.7851 66.7386 57.7851 67.1907V72.0863C57.7851 72.2738 57.7244 72.4282 57.6031 72.5494C57.4929 72.6597 57.344 72.7148 57.1566 72.7148C56.9691 72.7148 56.8148 72.6597 56.6935 72.5494C56.5722 72.4282 56.5115 72.2738 56.5115 72.0863V64.3128C56.5115 64.1254 56.5722 63.971 56.6935 63.8497C56.8148 63.7284 56.9691 63.6678 57.1566 63.6678C57.344 63.6678 57.4929 63.7284 57.6031 63.8497C57.7244 63.971 57.7851 64.1254 57.7851 64.3128V64.8752C58.1489 64.4672 58.59 64.1474 59.1082 63.9159C59.6265 63.6843 60.1888 63.5686 60.7952 63.5686ZM69.6564 72.7148C68.9838 72.7148 68.4324 72.4502 68.0024 71.921C67.5834 71.3807 67.3739 70.6915 67.3739 69.8535V60.4261C67.3739 60.2386 67.4346 60.0898 67.5559 59.9795C67.6771 59.8582 67.826 59.7976 68.0024 59.7976C68.1899 59.7976 68.3387 59.8582 68.449 59.9795C68.5703 60.0898 68.6309 60.2386 68.6309 60.4261V69.8535C68.6309 70.3277 68.7246 70.7136 68.9121 71.0113C69.1106 71.309 69.3586 71.4578 69.6564 71.4578H70.0698C70.2352 71.4578 70.3676 71.5185 70.4668 71.6398C70.566 71.75 70.6156 71.8989 70.6156 72.0863C70.6156 72.2738 70.544 72.4282 70.4006 72.5494C70.2683 72.6597 70.0919 72.7148 69.8714 72.7148H69.6564ZM73.2822 72.7148C73.0948 72.7148 72.9404 72.6542 72.8191 72.5329C72.6978 72.4116 72.6372 72.2573 72.6372 72.0698V64.3128C72.6372 64.1254 72.6978 63.971 72.8191 63.8497C72.9404 63.7284 73.0948 63.6678 73.2822 63.6678C73.4697 63.6678 73.6185 63.7284 73.7288 63.8497C73.8501 63.971 73.9107 64.1254 73.9107 64.3128V72.0698C73.9107 72.2573 73.8501 72.4116 73.7288 72.5329C73.6185 72.6542 73.4697 72.7148 73.2822 72.7148ZM73.2657 61.9477C73.0121 61.9477 72.7971 61.8595 72.6207 61.6831C72.4553 61.5066 72.3726 61.2916 72.3726 61.038C72.3726 60.7734 72.4608 60.5584 72.6372 60.393C72.8136 60.2276 73.0286 60.1449 73.2822 60.1449C73.5248 60.1449 73.7343 60.2276 73.9107 60.393C74.0871 60.5584 74.1754 60.7734 74.1754 61.038C74.1754 61.2916 74.0871 61.5066 73.9107 61.6831C73.7343 61.8595 73.5193 61.9477 73.2657 61.9477ZM81.4372 63.5686C82.2201 63.5686 82.9202 63.734 83.5377 64.0647C84.1662 64.3955 84.6569 64.8807 85.0097 65.5202C85.3625 66.1487 85.539 66.904 85.539 67.7861V72.0863C85.539 72.2628 85.4783 72.4116 85.357 72.5329C85.2357 72.6542 85.0869 72.7148 84.9105 72.7148C84.723 72.7148 84.5686 72.6542 84.4474 72.5329C84.3261 72.4116 84.2654 72.2628 84.2654 72.0863V67.7861C84.2654 66.8048 83.9898 66.0605 83.4385 65.5533C82.8982 65.0351 82.187 64.7759 81.3049 64.7759C80.7646 64.7759 80.2739 64.8807 79.8329 65.0902C79.4028 65.2997 79.061 65.5919 78.8074 65.9668C78.5538 66.3306 78.427 66.7386 78.427 67.1907V72.0863C78.427 72.2738 78.3664 72.4282 78.2451 72.5494C78.1348 72.6597 77.986 72.7148 77.7985 72.7148C77.6111 72.7148 77.4567 72.6597 77.3354 72.5494C77.2141 72.4282 77.1535 72.2738 77.1535 72.0863V64.3128C77.1535 64.1254 77.2141 63.971 77.3354 63.8497C77.4567 63.7284 77.6111 63.6678 77.7985 63.6678C77.986 63.6678 78.1348 63.7284 78.2451 63.8497C78.3664 63.971 78.427 64.1254 78.427 64.3128V64.8752C78.7909 64.4672 79.2319 64.1474 79.7502 63.9159C80.2684 63.6843 80.8307 63.5686 81.4372 63.5686ZM92.2003 63.5851C93.0163 63.5851 93.7385 63.7781 94.367 64.164C94.9955 64.5389 95.4806 65.0626 95.8225 65.7352C96.1753 66.4078 96.3517 67.1741 96.3517 68.0342C96.3517 68.2106 96.2966 68.354 96.1863 68.4642C96.0761 68.5635 95.9327 68.6131 95.7563 68.6131H89.0744C89.1626 69.5172 89.5154 70.2505 90.1329 70.8128C90.7504 71.3752 91.5222 71.6563 92.4484 71.6563C92.8454 71.6563 93.2423 71.5902 93.6393 71.4578C94.0472 71.3145 94.3725 71.1381 94.6151 70.9286C94.7584 70.8183 94.9073 70.7632 95.0616 70.7632C95.1829 70.7632 95.3042 70.8073 95.4255 70.8955C95.5689 71.0278 95.6405 71.1767 95.6405 71.3421C95.6405 71.4854 95.5799 71.6122 95.4586 71.7225C95.0947 72.0312 94.6316 72.2903 94.0693 72.4998C93.5069 72.6983 92.9667 72.7975 92.4484 72.7975C91.5663 72.7975 90.7779 72.6046 90.0833 72.2187C89.3886 71.8217 88.8428 71.2759 88.4459 70.5813C88.06 69.8756 87.867 69.0817 87.867 68.1996C87.867 67.3065 88.0489 66.5126 88.4128 65.8179C88.7877 65.1122 89.3004 64.5664 89.951 64.1805C90.6125 63.7836 91.3623 63.5851 92.2003 63.5851ZM92.2003 64.7263C91.3623 64.7263 90.6677 64.9854 90.1164 65.5037C89.5651 66.0219 89.2288 66.7055 89.1075 67.5546H95.1609C95.0727 66.7055 94.7639 66.0219 94.2347 65.5037C93.7054 64.9854 93.0273 64.7263 92.2003 64.7263ZM110.43 63.7174C110.684 63.8166 110.811 63.9765 110.811 64.1971C110.811 64.2963 110.789 64.3955 110.745 64.4948L105.386 76.2708C105.287 76.5244 105.127 76.6512 104.906 76.6512C104.796 76.6512 104.697 76.6292 104.609 76.5851C104.355 76.4858 104.228 76.3204 104.228 76.0889C104.228 75.9896 104.25 75.8904 104.294 75.7912L105.932 72.169V72.1525L102.243 64.5113C102.199 64.4231 102.177 64.3239 102.177 64.2136C102.177 63.982 102.299 63.8166 102.541 63.7174C102.629 63.6733 102.729 63.6513 102.839 63.6513C103.07 63.6513 103.236 63.767 103.335 63.9986L106.56 70.7963L109.637 64.0151C109.747 63.7725 109.912 63.6513 110.133 63.6513C110.232 63.6513 110.331 63.6733 110.43 63.7174ZM116.095 72.7975C115.224 72.7975 114.436 72.5991 113.73 72.2021C113.035 71.8052 112.489 71.2594 112.092 70.5647C111.695 69.859 111.497 69.0707 111.497 68.1996C111.497 67.3285 111.695 66.5401 112.092 65.8345C112.489 65.1288 113.035 64.5775 113.73 64.1805C114.436 63.7836 115.224 63.5851 116.095 63.5851C116.966 63.5851 117.749 63.7836 118.444 64.1805C119.138 64.5775 119.684 65.1288 120.081 65.8345C120.489 66.5401 120.693 67.3285 120.693 68.1996C120.693 69.0707 120.494 69.859 120.098 70.5647C119.701 71.2594 119.149 71.8052 118.444 72.2021C117.749 72.5991 116.966 72.7975 116.095 72.7975ZM116.095 71.6398C116.734 71.6398 117.308 71.4909 117.815 71.1932C118.322 70.8955 118.719 70.4875 119.006 69.9693C119.293 69.44 119.436 68.8501 119.436 68.1996C119.436 67.538 119.293 66.9481 119.006 66.4299C118.719 65.9006 118.322 65.4871 117.815 65.1894C117.308 64.8917 116.734 64.7429 116.095 64.7429C115.466 64.7429 114.893 64.8917 114.375 65.1894C113.868 65.4871 113.465 65.9006 113.167 66.4299C112.881 66.9481 112.737 67.538 112.737 68.1996C112.737 68.8501 112.881 69.44 113.167 69.9693C113.465 70.4875 113.868 70.8955 114.375 71.1932C114.893 71.4909 115.466 71.6398 116.095 71.6398ZM127.288 63.5851C128.17 63.5851 128.959 63.7836 129.653 64.1805C130.348 64.5664 130.894 65.1122 131.291 65.8179C131.688 66.5126 131.886 67.3065 131.886 68.1996V71.5736C131.886 72.4557 131.688 73.2551 131.291 73.9718C130.905 74.6885 130.364 75.2509 129.67 75.6589C128.975 76.0779 128.192 76.2874 127.321 76.2874C126.472 76.2874 125.717 76.1275 125.055 75.8077C124.394 75.4879 123.837 75.0414 123.385 74.468C123.286 74.3578 123.236 74.231 123.236 74.0876C123.236 73.9222 123.313 73.7789 123.468 73.6576C123.578 73.5804 123.699 73.5418 123.831 73.5418C123.931 73.5418 124.03 73.5639 124.129 73.608C124.228 73.6631 124.306 73.7293 124.361 73.8064C124.691 74.2254 125.11 74.5507 125.618 74.7823C126.125 75.0138 126.698 75.1296 127.338 75.1296C127.955 75.1296 128.512 74.9752 129.008 74.6665C129.515 74.3688 129.912 73.9443 130.199 73.393C130.486 72.8527 130.629 72.2297 130.629 71.524V70.7797C130.298 71.4082 129.83 71.9044 129.223 72.2683C128.617 72.6211 127.928 72.7975 127.156 72.7975C126.296 72.7975 125.524 72.6046 124.84 72.2187C124.168 71.8217 123.638 71.2759 123.253 70.5813C122.878 69.8756 122.69 69.0817 122.69 68.1996C122.69 67.3065 122.889 66.5126 123.286 65.8179C123.683 65.1122 124.228 64.5664 124.923 64.1805C125.629 63.7836 126.417 63.5851 127.288 63.5851ZM127.288 71.6398C127.928 71.6398 128.501 71.4964 129.008 71.2098C129.515 70.912 129.912 70.5041 130.199 69.9858C130.486 69.4566 130.629 68.8612 130.629 68.1996C130.629 67.538 130.486 66.9481 130.199 66.4299C129.912 65.9006 129.515 65.4871 129.008 65.1894C128.501 64.8917 127.928 64.7429 127.288 64.7429C126.638 64.7429 126.059 64.8917 125.552 65.1894C125.044 65.4871 124.647 65.9006 124.361 66.4299C124.074 66.9481 123.931 67.538 123.931 68.1996C123.931 68.8612 124.074 69.4566 124.361 69.9858C124.647 70.5041 125.044 70.912 125.552 71.2098C126.059 71.4964 126.638 71.6398 127.288 71.6398ZM138.481 63.5851C139.341 63.5851 140.119 63.7891 140.813 64.1971C141.519 64.594 142.07 65.1453 142.467 65.851C142.875 66.5567 143.079 67.3395 143.079 68.1996V72.0863C143.079 72.2628 143.019 72.4116 142.897 72.5329C142.776 72.6542 142.622 72.7148 142.434 72.7148C142.247 72.7148 142.092 72.6597 141.971 72.5494C141.85 72.4282 141.789 72.2738 141.789 72.0863V71.094C141.403 71.6232 140.913 72.0422 140.317 72.351C139.722 72.6487 139.066 72.7975 138.349 72.7975C137.511 72.7975 136.75 72.5991 136.067 72.2021C135.394 71.7942 134.859 71.2428 134.462 70.5482C134.076 69.8425 133.883 69.0596 133.883 68.1996C133.883 67.3395 134.082 66.5567 134.479 65.851C134.887 65.1453 135.438 64.594 136.133 64.1971C136.838 63.7891 137.621 63.5851 138.481 63.5851ZM138.481 71.6398C139.11 71.6398 139.678 71.4909 140.185 71.1932C140.692 70.8955 141.089 70.4875 141.376 69.9693C141.673 69.44 141.822 68.8501 141.822 68.1996C141.822 67.549 141.673 66.9646 141.376 66.4464C141.089 65.9172 140.692 65.5037 140.185 65.206C139.678 64.8972 139.11 64.7429 138.481 64.7429C137.853 64.7429 137.279 64.8972 136.761 65.206C136.254 65.5037 135.852 65.9172 135.554 66.4464C135.267 66.9646 135.124 67.549 135.124 68.1996C135.124 68.8501 135.267 69.44 135.554 69.9693C135.852 70.4875 136.254 70.8955 136.761 71.1932C137.279 71.4909 137.853 71.6398 138.481 71.6398Z" fill="black"/>
</svg>
